# xmcd CD database file
#
# Track frame offsets:
#	150
#	7788
#	16115
#	25427
#	37154
#	47557
#	59076
#	68411
#	77115
#	85679
#	92325
#	103557
#	114158
#	122775
#	128527
#	135952
#	144579
#	152068
#	160125
#	175638
#	182718
#	191405
#	204154
#	215500
#	222455
#	233700
#	246769
#	256849
#	267019
#	274653
#
# Disc length: 3805 seconds
#
# Revision: 1
# Processed by: cddbd v1.5.2PL0 Copyright (c) Steve Scherf et al.
# Submitted via: CDex 1.77
#
DISCID=840edb1e
DTITLE=Various Artist - JAZZ DIARY
DYEAR=1900
DGENRE=Jazz
TTITLE0=01Skyliner - Charlie Barnet
TTITLE1=02 Sing,Sing,Sing - Benny Goodman
TTITLE2=03 Take the 'a' Train - Original:Duke Ellington Orchestra
TTITLE3=04 Summertime - Slide Hampton
TTITLE4=05 Let's Dance - Benny Goodman
TTITLE5=06 Lullaby of Birdland - Count Basie
TTITLE6=07 In the Mood - Glenn Miller
TTITLE7=08Cheek to Cheek - Frank Sinatra
TTITLE8=09 Take Five - Dave Brubeck
TTITLE9=10 Night and Day - Benny Goodman
TTITLE10=11 April in Paris - Count Basie
TTITLE11=12 Moanin' Quincy Jones
TTITLE12=13 The Pink Panther Theme - Original:Henry Mancini
TTITLE13=14 Waltz For Debby - Bill Evans
TTITLE14=15 Moonlight Serenade - Glenn Miller
TTITLE15=16 Smile - Nat King Cole
TTITLE16=17 It Don't Mean a Thing (If It Ain't Got That Swing) - Original:Duke Ellington and Orchestra
TTITLE17=18 Over the Rainbow - Harold Nicholas et son orchestre
TTITLE18=19 A Night In Tunisia - Fredrich Gulda
TTITLE19=20 You'd Be so Nice to Come Home to - Billy Bauer
TTITLE20=21Everybody Loves My Baby - Glenn Miller
TTITLE21=22 Moment's Notice - John Coltrane Sextet
TTITLE22=23Mack the Knife - Wayne Shorter
TTITLE23=24 Quiet Riot - Buddy Rich
TTITLE24=25 Cherokee - Stan Getz
TTITLE25=26Giant Steps - John Coltrane
TTITLE26=27 I Got Rhythm - Benny Goodman
TTITLE27=28Bugle Call Rag - Metronome All Star Band
TTITLE28=29Jumpin' at the Woodside - Count Basie
TTITLE29=30 Caravan - Phil Woods
EXTD=
EXTT0=
EXTT1=
EXTT2=
EXTT3=
EXTT4=
EXTT5=
EXTT6=
EXTT7=
EXTT8=
EXTT9=
EXTT10=
EXTT11=
EXTT12=
EXTT13=
EXTT14=
EXTT15=
EXTT16=
EXTT17=
EXTT18=
EXTT19=
EXTT20=
EXTT21=
EXTT22=
EXTT23=
EXTT24=
EXTT25=
EXTT26=
EXTT27=
EXTT28=
EXTT29=
PLAYORDER=
